<svg data-v-0dd9719b="" version="1.0" xmlns="http://www.w3.org/2000/svg" xmlns:xlink="http://www.w3.org/1999/xlink" width="100%" height="100%" viewBox="0 0 340.000000 250.000000" preserveAspectRatio="xMidYMid meet" color-interpolation-filters="sRGB" style="margin: auto;"> <rect data-v-0dd9719b="" x="0" y="0" width="100%" height="100%" fill="#fff" fill-opacity="1" class="background"></rect> <rect data-v-0dd9719b="" x="0" y="0" width="100%" height="100%" fill="url(#watermark)" fill-opacity="1" class="watermarklayer"></rect> <g data-v-0dd9719b="" fill="#333" class="icon-text-wrapper icon-svg-group iconsvg" transform="translate(48.034996032714844,95.44334983825684)"><g class="iconsvg-imagesvg" transform="translate(0,0)"><g><rect fill="#333" fill-opacity="0" stroke-width="2" x="0" y="0" width="60" height="59.11330049261084" class="image-rect"></rect> <svg x="0" y="0" width="60" height="59.11330049261084" filtersec="colorsb8061814326" class="image-svg-svg primary" style="overflow: visible;"><svg xmlns="http://www.w3.org/2000/svg" viewBox="0 0 95.37999725341797 93.97000122070312"><g fill-rule="evenodd"><path d="M47.69 38.07L23.84 51.84 0 38.07V27.53L47.69 0l47.69 27.53v10.54L71.53 51.84 47.69 38.07zM9.12 32.8l14.72 8.5 23.85-13.77L71.53 41.3l14.73-8.5-38.57-22.27z" fill="#fcb11a"></path><path fill="#a5a5a5" d="M47.69 59.14L23.84 72.9 0 59.14V48.6l23.84 13.77L47.69 48.6l23.84 13.77L95.38 48.6v10.54L71.53 72.9 47.69 59.14z"></path><path fill="#a5a5a5" d="M47.69 80.21L23.84 93.97 0 80.21V69.67l23.84 13.77 23.85-13.77 23.84 13.77 23.85-13.77v10.54L71.53 93.97 47.69 80.21z"></path></g></svg></svg> <!----></g></g> <g transform="translate(67,1.4454002380371094)"><g data-gra="path-name" fill-rule="" class="tp-name iconsvg-namesvg" transform="translate(0,0)"><g transform="scale(1)"><g><path d="M11.39-27.25L34.57-27.25 34.57-31.5 11.39-31.5 11.39-27.25ZM22.43-12.58L28.66-12.58 28.66-17 22.43-17 22.43-12.58ZM5.74 3.94L5.74 3.94Q3.07 1.8 1.4 1.1L1.4 1.1Q5.74-5.87 5.74-22L5.74-22 5.74-34.48 40.22-34.48 40.22-24.32 11.39-24.32 11.39-22Q11.39-18.32 11.04-13.82 10.69-9.33 9.62-4.95 8.54-0.57 5.74 3.94ZM36.85-9.64L36.85-9.64 40.14-7.41Q37.73-5.61 33.65-3.55L33.65-3.55Q37.95-0.61 42.55 0.31L42.55 0.31Q42.55 0.39 41.95 1.23 41.36 2.06 40.66 3.42L40.66 3.42Q27.65 0.04 23.35-9.68L23.35-9.68 19.63-9.68 19.63-1.36 27.65-3.07 27.43-0.09Q17.66 2.19 13.98 3.37L13.98 3.37Q12.49 0.66 12.49 0.44L12.49 0.44Q12.66 0.35 13.47-0.59 14.28-1.53 14.28-3.42L14.28-3.42 14.28-9.68 11.17-9.68 11.17-12.58 17.13-12.58 17.13-17 11.7-17 11.7-19.94 17.13-19.94 17.13-23.75 22.43-23.75 22.43-19.94 28.66-19.94 28.66-23.75 34.05-23.75 34.05-19.94 40.93-19.94 40.93-17 34.05-17 34.05-12.58 42.72-12.58 42.72-9.68 28.52-9.68Q30.15-6.66 31.24-5.65L31.24-5.65Q33.48-6.92 36.85-9.64ZM59.28-29.49L55.6-26.2Q53.28-29.84 49.6-33.52L49.6-33.52 52.71-36.15Q58.19-31.07 59.28-29.49L59.28-29.49ZM52.49 2.41L52.49 2.41Q51.66 0.83 50.48-1.18L50.48-1.18Q52.14-2.76 52.14-5.3L52.14-5.3 52.14-19.63 46.45-19.63 46.45-23 57.66-23 57.66-7.32 61.48-10.34Q62.09-8.46 62.96-6.48L62.96-6.48Q59.59-3.72 57.62-2.08 55.65-0.44 52.49 2.41ZM84.44 3.33L84.44 3.33Q80.01 3.33 78.74-2.72L78.74-2.72Q77.78-7.27 77.58-14.59 77.38-21.91 77.38-30.98L77.38-30.98 71.38-30.98 71.38-18.84 77.56-18.84 77.56-15.56 71.38-15.56 71.38 2.54 65.94 2.54 65.94-15.56 59.9-15.56 59.9-18.84 65.94-18.84 65.94-30.98 60.16-30.98 60.16-34.26 83.08-34.26Q82.99-28.04 82.99-22.22L82.99-22.22Q82.99-20.29 83.01-15.58 83.03-10.87 83.58-5.94 84.13-1.01 84.7-0.79L84.7-0.79 84.57-0.79Q84.13-0.79 84.13-1.8L84.13-1.8Q84.13-2.15 84.28-3.42 84.44-4.69 84.61-9.29L84.61-9.29Q87.81-4.38 88.38-3.9L88.38-3.9Q87.81 3.33 84.44 3.33ZM113.49-1.18L113.49-1.18Q110.94-3.37 110.02-3.81L110.02-3.81Q114.01-7.58 116.55-15.47L116.55-15.47Q113.62-19.85 111.16-22.61L111.16-22.61 114.14-25.24Q117.21-21.86 118.04-20.81L118.04-20.81Q118.61-23.22 119.18-27.6L119.18-27.6 124.35-27.04Q123.61-21.34 121.85-15.6L121.85-15.6Q124.97-11.13 126.11-8.54L126.11-8.54 122.38-5.13Q120.72-8.85 119.88-10.25L119.88-10.25Q118.26-6 113.49-1.18ZM119.49 3.11L119.49 3.11Q119.27 2.1 118.81 0.88 118.35-0.35 118.26-0.48L118.26-0.48Q120.98-0.31 122.82-0.31L122.82-0.31Q124.66-0.31 125.45-0.35L125.45-0.35Q125.8-0.35 125.8-1.75L125.8-1.75 125.8-30.63 99.33-30.63 99.33-5.43Q101.92-8.02 104.37-15.47L104.37-15.47Q101.13-19.81 98.72-22.65L98.72-22.65 101.57-25.5Q104.81-21.82 105.77-20.59L105.77-20.59Q106.48-23.14 107.09-27.69L107.09-27.69 112.26-27.12Q111.43-21.43 109.63-15.6L109.63-15.6Q112.43-11.83 113.62-9.9L113.62-9.9 110.24-6.27Q108.45-9.64 107.79-10.6L107.79-10.6Q106.12-6.35 101.61-1.49L101.61-1.49Q99.95-2.98 98.89-3.72L98.89-3.72 99.33-3.46 99.33 3.11 93.68 3.11 93.68-33.96 131.45-33.96 131.45-1.71Q131.45 1.53 129.04 2.28L129.04 2.28Q127.68 2.8 125.51 2.96 123.34 3.11 119.49 3.11ZM153.71-3.94L137.8 1.49 136.97-2.23Q143.19-3.99 153.1-7.1L153.1-7.1 153.71-3.94ZM160.37-2.41L170.01-2.41 170.01-9.73 160.37-9.73 160.37-2.41ZM160.37 0.61L160.37 2.85 155.07 2.85 155.07-12.79 175.53-12.79 175.53 2.76 170.01 2.76 170.01 0.61 160.37 0.61ZM165.23-22.87L165.23-22.87Q167.69-24.8 170.4-29.23L170.4-29.23 161.16-29.23 160.85-28.74Q163-24.71 165.23-22.87ZM138.33-7.23L138.33-7.23Q137.89-8.85 137.48-10.01 137.06-11.17 137.02-11.3L137.02-11.3Q138.24-11.61 140.04-13.85L140.04-13.85Q141.31-15.16 144.51-19.72L144.51-19.72Q142.89-19.5 141.7-19.32 140.52-19.15 140.04-19.02 139.56-18.89 137.98-17.96L137.98-17.96Q137.54-19.41 137.13-20.57 136.71-21.73 136.67-21.86L136.67-21.86Q138.07-22.35 141.57-28.88L141.57-28.88Q143.37-32.29 145.03-36.89L145.03-36.89 150.07-34.48Q147.53-28.79 143.02-22.48L143.02-22.48 146.57-22.83Q147.75-24.76 149.33-27.87L149.33-27.87 152.57-25.81Q156.82-29.8 159.76-37.33L159.76-37.33 164.66-35.89Q164.27-34.92 163.04-32.38L163.04-32.38 172.99-32.38 174.13-32.6 176.76-31.02Q174.35-25.41 168.48-20.29L168.48-20.29Q173.21-17.31 178.33-16.04L178.33-16.04Q177.46-13.76 177.2-12.49L177.2-12.49Q169.44-14.9 165.23-17.92L165.23-17.92Q160.5-14.68 152.79-12.22L152.79-12.22Q152.48-13.54 151.61-15.77L151.61-15.77Q156.82-17.22 161.99-20.42L161.99-20.42Q158.88-23.44 157.96-24.84L157.96-24.84Q157.22-23.92 154.19-21.16L154.19-21.16Q153.05-23.09 152.53-23.75L152.53-23.75 152.79-23.4Q150.12-19.06 145.3-13.45L145.3-13.45 152.88-15.07Q152.83-14.28 152.83-13.23L152.83-13.23Q152.83-12.14 152.88-11.96L152.88-11.96Q142.01-9.29 141.02-8.94 140.04-8.59 138.33-7.23Z" transform="translate(-1.399999976158142, 37.33000183105469)"></path></g> <!----> <!----> <!----> <!----> <!----> <!----> <!----></g></g> <g data-gra="path-slogan" fill-rule="" class="tp-slogan iconsvg-slogansvg" fill="#333" transform="translate(14.754180908203125,47.27000045776367)"><!----> <!----> <g transform="scale(1, 1)"><g transform="scale(1)"><path d="M7.17-6.09L7.17-6.09L6.09-6.09Q6-7.73 3.94-7.83L3.94-7.83Q2.02-7.78 2.02-6.33L2.02-6.33Q2.02-5.39 3.05-5.25L3.05-5.25L5.48-4.69Q7.41-4.22 7.41-2.34L7.41-2.34Q7.36 0.05 4.03 0.14L4.03 0.14Q2.20 0.14 1.45-0.61L1.45-0.61Q0.52-1.31 0.56-2.77L0.56-2.77L1.69-2.77Q1.73-0.80 4.03-0.75L4.03-0.75Q6.28-0.80 6.33-2.20L6.33-2.20Q6.52-3.38 4.45-3.75L4.45-3.75L2.67-4.13Q0.84-4.64 0.84-6.19L0.84-6.19Q0.98-8.72 3.84-8.81L3.84-8.81Q7.08-8.81 7.17-6.09ZM12.52-7.64L10.17-7.64L10.17-4.64L12.47-4.64Q14.25-4.64 14.25-6.19L14.25-6.19Q14.25-7.59 12.52-7.64L12.52-7.64ZM12.89-3.61L10.17-3.61L10.17 0L9 0L9-8.58L12.89-8.58Q15.33-8.48 15.42-6.19L15.42-6.19Q15.28-3.70 12.89-3.61L12.89-3.61ZM20.95-3.70L18.14-3.70L18.14 0L16.97 0L16.97-8.58L20.95-8.58Q23.81-8.58 23.81-6.28L23.81-6.28Q23.81-4.88 22.59-4.22L22.59-4.22Q23.63-3.94 23.63-2.58L23.63-2.58L23.72-1.03Q23.67-0.38 24.14-0.19L24.14-0.19L24.14 0L22.69 0Q22.55-0.61 22.50-2.16L22.50-2.16Q22.55-3.70 20.95-3.70L20.95-3.70ZM21.05-7.64L18.14-7.64L18.14-4.69L20.86-4.69Q22.59-4.69 22.59-6.19L22.59-6.19Q22.59-7.64 21.05-7.64L21.05-7.64ZM26.77-1.03L31.92-1.03L31.92 0L25.59 0L25.59-8.58L31.83-8.58L31.83-7.59L26.77-7.59L26.77-4.92L31.45-4.92L31.45-3.89L26.77-3.89L26.77-1.03ZM39.09 0L38.25-2.48L34.78-2.48L33.89 0L32.72 0L35.95-8.58L37.27-8.58L40.36 0L39.09 0ZM36.52-7.31L35.16-3.52L37.83-3.52L36.56-7.31L36.52-7.31ZM44.91 0L41.44 0L41.44-8.58L44.95-8.58Q48.42-8.39 48.56-4.41L48.56-4.41Q48.38-0.09 44.91 0L44.91 0ZM44.77-7.64L42.61-7.64L42.61-0.98L44.86-0.98Q47.30-1.13 47.39-4.31L47.39-4.31Q47.34-7.55 44.77-7.64L44.77-7.64ZM52.22-7.59L49.31-7.59L49.31-8.58L56.25-8.58L56.25-7.59L53.34-7.59L53.34 0L52.22 0L52.22-7.59ZM61.41-3.70L58.59-3.70L58.59 0L57.42 0L57.42-8.58L61.41-8.58Q64.27-8.58 64.27-6.28L64.27-6.28Q64.27-4.88 63.05-4.22L63.05-4.22Q64.08-3.94 64.08-2.58L64.08-2.58L64.17-1.03Q64.13-0.38 64.59-0.19L64.59-0.19L64.59 0L63.14 0Q63-0.61 62.95-2.16L62.95-2.16Q63-3.70 61.41-3.70L61.41-3.70ZM61.50-7.64L58.59-7.64L58.59-4.69L61.31-4.69Q63.05-4.69 63.05-6.19L63.05-6.19Q63.05-7.64 61.50-7.64L61.50-7.64ZM71.58-3.19L71.58-8.58L72.75-8.58L72.75-3.05Q72.61 0.05 69.23 0.14L69.23 0.14Q66.09 0.05 65.95-2.86L65.95-2.86L65.95-8.58L67.13-8.58L67.13-3.19Q67.17-0.84 69.28-0.80L69.28-0.80Q71.58-0.84 71.58-3.19L71.58-3.19ZM82.78-8.58L82.78 0L81.66 0L81.66-5.06Q81.66-5.77 81.66-7.22L81.66-7.22L79.22 0L78.05 0L75.66-7.22L75.61-7.22Q75.61-6.70 75.66-5.67L75.66-5.67Q75.66-5.16 75.66-5.06L75.66-5.06L75.66 0L74.48 0L74.48-8.58L76.17-8.58L78.66-1.31L81.09-8.58L82.78-8.58ZM89.20-8.58L93.52-1.64L93.52-8.58L94.64-8.58L94.64 0L93.33 0L88.97-6.94L88.92-6.94L88.92 0L87.80 0L87.80-8.58L89.20-8.58ZM97.73-1.03L102.89-1.03L102.89 0L96.56 0L96.56-8.58L102.80-8.58L102.80-7.59L97.73-7.59L97.73-4.92L102.42-4.92L102.42-3.89L97.73-3.89L97.73-1.03ZM106.59-7.59L103.69-7.59L103.69-8.58L110.63-8.58L110.63-7.59L107.72-7.59L107.72 0L106.59 0L106.59-7.59ZM116.44-7.13L116.39-7.13L114.42 0L113.20 0L110.95-8.58L112.17-8.58L113.81-1.59L113.86-1.59L115.78-8.58L117.05-8.58L118.97-1.59L119.02-1.59L120.61-8.58L121.88-8.58L119.63 0L118.41 0L116.44-7.13ZM129.75-4.27L129.75-4.27Q129.56-7.64 126.75-7.83L126.75-7.83Q123.89-7.69 123.75-4.27L123.75-4.27Q123.89-0.94 126.75-0.80L126.75-0.80Q129.56-0.98 129.75-4.27ZM130.92-4.27L130.92-4.27Q130.64 0 126.75 0.14L126.75 0.14Q122.81 0 122.53-4.27L122.53-4.27Q122.77-8.72 126.75-8.81L126.75-8.81Q130.64-8.67 130.92-4.27ZM136.41-3.70L133.59-3.70L133.59 0L132.42 0L132.42-8.58L136.41-8.58Q139.27-8.58 139.27-6.28L139.27-6.28Q139.27-4.88 138.05-4.22L138.05-4.22Q139.08-3.94 139.08-2.58L139.08-2.58L139.17-1.03Q139.13-0.38 139.59-0.19L139.59-0.19L139.59 0L138.14 0Q138-0.61 137.95-2.16L137.95-2.16Q138-3.70 136.41-3.70L136.41-3.70ZM136.50-7.64L133.59-7.64L133.59-4.69L136.31-4.69Q138.05-4.69 138.05-6.19L138.05-6.19Q138.05-7.64 136.50-7.64L136.50-7.64ZM143.44-4.31L142.08-3.05L142.08 0L140.91 0L140.91-8.58L142.08-8.58L142.08-4.41L146.25-8.58L147.89-8.58L144.28-5.11L147.98 0L146.44 0L143.44-4.31Z" transform="translate(-0.5602678571428572, 8.8125)"></path></g></g></g></g></g><defs v-gra="od"></defs></svg>